HIERARCHY
ROOT pelvis
{
  OFFSET 0 100 0
  CHANNELS 6 Xposition Yposition Zposition Zrotation Xrotation Yrotation
  JOINT pelvis_right_femur
  {
    OFFSET -10.78128 -3.44521 -0.5502486
    CHANNELS 3 Zrotation Xrotation Yrotation
    JOINT right_femur_tibia
    {
      OFFSET -0.8047443 -44.0398 -0.1307829
      CHANNELS 3 Zrotation Xrotation Yrotation
      JOINT right_tibia_foot
      {
        OFFSET 3.006224 -47.83518 -5
        CHANNELS 3 Zrotation Xrotation Yrotation
        End Site
        {
          OFFSET 0 -5 15
        }
      }
    }
  }
  JOINT pelvis_left_femur
  {
    OFFSET 10.78128 -3.44521 -0.5502486
    CHANNELS 3 Zrotation Xrotation Yrotation
    JOINT left_femur_tibia
    {
      OFFSET 0.8047443 -44.0398 -0.1307829
      CHANNELS 3 Zrotation Xrotation Yrotation
      JOINT left_tibia_foot
      {
        OFFSET -4.370144 -48.10324 -4.275266
        CHANNELS 3 Zrotation Xrotation Yrotation
        End Site
        {
          OFFSET 0 -5 15
        }
      }
    }
  }
  JOINT pelvis_spine1
  {
    OFFSET 0 6.468898 -3.129235
    CHANNELS 3 Zrotation Xrotation Yrotation
    JOINT spine1
    {
      OFFSET 0 23.15396 4.99043
      CHANNELS 3 Zrotation Xrotation Yrotation
      JOINT spine2
      {
        OFFSET 0 20.79997 -5.064912
        CHANNELS 3 Zrotation Xrotation Yrotation
        JOINT neck
        {
          OFFSET 0 14.38658 9.616178
          CHANNELS 3 Zrotation Xrotation Yrotation
          End Site
          {
            OFFSET 0 20 0
          }
        }
      }
      JOINT right_manubrium
      {
        OFFSET -5.722621 16.35077 3.967754
        CHANNELS 3 Zrotation Xrotation Yrotation
        JOINT right_clavicle
        {
          OFFSET -13.16364 1.694482 -4.693211
          CHANNELS 3 Zrotation Xrotation Yrotation
          JOINT right_humerus
          {
            OFFSET -28.5034 -0.3100689 -2.792744
            CHANNELS 3 Zrotation Xrotation Yrotation
            JOINT right_radius
            {
              OFFSET -25.15693 0.02248979 -1.271978
              CHANNELS 3 Zrotation Xrotation Yrotation
              End Site
              {
                OFFSET -15 0 0
              }
            }
          }
        }
      }
      JOINT left_manubrium
      {
        OFFSET 5.722621 16.35077 3.967754
        CHANNELS 3 Zrotation Xrotation Yrotation
        JOINT left_clavicle
        {
          OFFSET 13.16364 1.694482 -4.693211
          CHANNELS 3 Zrotation Xrotation Yrotation
          JOINT left_humerus
          {
            OFFSET 29.39168 -1.063119 -2.237045
            CHANNELS 3 Zrotation Xrotation Yrotation
            JOINT left_radius
            {
              OFFSET 24.59957 -0.9528479 0.9047498
              CHANNELS 3 Zrotation Xrotation Yrotation
              End Site
              {
                OFFSET 15 -0 -0
              }
            }
          }
        }
      }
    }
  }
}
MOTION
Frames: 9
Frame Time: 0.0416666666667
0 103.5113 0 0.9304625 -2.955215 0.1031319 2.04202 -13.02364 7.183714 -0 41.78797 -0 -7.535484 -15.03074 -3.716016 -6.206653 11.97056 -24.27756 -0 5.557217 -0 0.5173559 -19.06218 23.28049 -0.96532 -2.355849 4.116782 -0.5115458 7.63434 -7.261219 1.553851 22.29322 8.691882 5.946726 -21.45838 8.924306 6.174121 -18.24934 9.916048 89.52554 36.40487 -24.70852 -0 0 17.08393 -7.959822 9.282282 1.76783 8.066379 -21.60735 -2.483684 -102.1824 43.32738 29.37323 0 0 -24.25532 -10.22012 18.23795 28.65451
0.1665513 103.6164 1.263877 0.4321006 -2.340124 0.1127182 2.512433 -14.96286 7.845086 -0 42.80635 -0 -7.641391 -15.12144 -4.386716 -5.789068 12.2646 -24.67303 -0 6.126169 -0 -1.916444 -20.40916 22.4846 -0.9185501 -2.26209 4.069386 -0.353512 7.618896 -7.327944 1.53332 22.22792 8.670067 5.855539 -21.66112 8.95478 6.1243 -18.18018 9.962223 89.59589 36.39767 -24.77515 -0 0 16.78382 -7.832003 9.280141 1.865389 7.938573 -21.57688 -2.486548 -101.72 43.01056 28.97589 0 0 -24.44666 -9.862294 18.05923 28.29063
0.3254229 103.4585 2.870547 0.1897544 -1.343872 0.1133895 3.320485 -19.46913 6.64426 -0 37.14722 -0 -7.142774 -13.00161 -3.78286 -5.80964 12.53376 -23.10012 -0 6.004934 -0 -0.8539478 -21.63853 21.89554 -0.6735719 -1.765848 4.020864 0.2859531 7.671509 -7.546972 1.397168 21.90395 8.612068 5.481919 -22.4795 9.007399 5.910211 -17.90812 10.25996 89.75085 36.7769 -24.73918 -0 0 15.34422 -8.005695 9.859128 2.652739 7.359479 -21.51367 -2.41552 -99.42706 40.97957 27.16473 0 0 -25.18093 -7.86166 17.25238 26.26944
0.4630014 103.151 4.71976 -0.1126541 -0.1572179 0.1391161 4.101958 -23.39964 6.399282 -0 33.33111 -0 -6.567629 -11.91038 -3.72139 -5.743622 12.83814 -22.26271 -0 5.982484 -0 -0.6981705 -22.92722 21.28316 -0.610752 -1.567684 4.057829 0.485328 7.741587 -7.585296 1.325347 21.80297 8.600207 5.364553 -22.6966 8.97038 5.849329 -17.82558 10.40832 89.68899 37.05133 -24.53843 -0 0 14.82328 -8.468392 10.30662 3.12948 7.130967 -21.4911 -2.37502 -98.56816 40.02128 26.53875 0 0 -25.27279 -7.078792 16.95618 25.44365
0.5912777 102.6623 6.942547 -0.3860563 1.025858 0.2247202 4.855736 -27.32606 5.944559 -0 28.8287 -0 -6.057251 -10.25168 -3.471103 -5.687165 13.18161 -21.1925 -0 6.1005 -0 -0.3436864 -24.062 20.52269 -0.527558 -1.402786 4.113193 0.6328205 7.820046 -7.620696 1.270427 21.68514 8.599474 5.27802 -22.87233 8.944981 5.804284 -17.75973 10.52983 89.66531 37.30695 -24.40515 -0 0 14.38833 -8.82907 10.70412 3.501012 6.976774 -21.51885 -2.32858 -97.83356 39.17819 26.00868 0 0 -25.4538 -6.346064 16.68781 24.70236
0.713139 102.026 9.606306 -0.7032394 2.255445 0.4109982 5.639426 -31.00021 5.672281 -0 24.60784 -0 -5.628246 -8.482456 -3.260812 -5.568378 13.57888 -20.22954 -0 6.449896 -0 -0.3282048 -25.07245 19.57262 -0.4710364 -1.289415 4.193245 0.6931732 7.906364 -7.618488 1.226445 21.60669 8.612252 5.241774 -22.9327 8.904405 5.784998 -17.73212 10.62523 89.60359 37.56153 -24.23681 -0 0 14.11932 -9.274038 11.10501 3.823966 6.890141 -21.56075 -2.285572 -97.34769 38.52539 25.69342 0 0 -25.51998 -5.824781 16.52295 24.17691
0.8349791 101.2665 12.81832 -1.056965 3.372511 0.7302854 6.382467 -34.13384 5.341082 -0 20.55435 -0 -5.419584 -6.341088 -2.970745 -5.377755 14.04668 -19.20444 -0 7.257503 -0 -0.6565439 -25.73348 18.31922 -0.4130003 -1.197218 4.274926 0.7282692 7.99099 -7.613931 1.1911 21.5297 8.629208 5.220799 -22.96818 8.869543 5.773547 -17.71317 10.70461 89.55774 37.7942 -24.1017 -0 0 13.90281 -9.667292 11.46813 4.091682 6.837919 -21.61857 -2.244278 -96.94183 37.96137 25.43583 0 0 -25.60594 -5.364039 16.38375 23.72307
0.9614879 100.4457 16.67063 -1.46775 4.307941 1.201908 7.071319 -36.37582 4.985365 -0 17.04448 -0 -5.48438 -4.041178 -2.642725 -5.097469 14.58707 -18.15221 -0 8.777761 -0 -1.519591 -25.82717 16.70037 -0.3634676 -1.119083 4.350429 0.7527336 8.070604 -7.607948 1.159997 21.46158 8.645508 5.206164 -22.98732 8.835686 5.766951 -17.69792 10.77465 89.51294 38.00119 -23.97876 -0 0 13.7207 -10.03577 11.7984 4.333892 6.797741 -21.67437 -2.209011 -96.59208 37.46124 25.21538 0 0 -25.67686 -4.963587 16.26009 23.32698
1.096111 99.66277 21.2263 -1.92334 4.917303 1.802395 7.654937 -37.23437 4.553124 -0 14.42607 -0 -5.878601 -1.866395 -2.298264 -4.735966 15.15231 -17.01381 -0 11.44774 -0 -2.96297 -24.9761 14.71361 -0.324577 -1.043661 4.405907 0.7938483 8.139483 -7.611434 1.129939 21.39814 8.653894 5.182157 -23.01938 8.804386 5.75962 -17.67447 10.8419 89.47114 38.16655 -23.87187 -0 0 13.53417 -10.35449 12.07836 4.56707 6.744732 -21.71389 -2.183765 -96.2446 36.98558 24.97967 0 0 -25.74081 -4.590903 16.12073 22.94564
